<svg width="24" height="24" viewBox="0 0 24 24" fill="none" xmlns="http://www.w3.org/2000/svg">
<path opacity="0.756" fill-rule="evenodd" clip-rule="evenodd" d="M18.0526 16.1365C17.3026 16.1365 16.6316 16.4378 16.1184 16.9096L9.08224 12.743C9.13158 12.512 9.17105 12.2811 9.17105 12.0402C9.17105 11.7992 9.13158 11.5683 9.08224 11.3373L16.0395 7.21084C16.5724 7.71285 17.273 8.0241 18.0526 8.0241C19.6908 8.0241 21.0132 6.67871 21.0132 5.01205C21.0132 3.34538 19.6908 2 18.0526 2C16.4145 2 15.0921 3.34538 15.0921 5.01205C15.0921 5.25301 15.1316 5.48394 15.1809 5.71486L8.22368 9.84137C7.69079 9.33936 6.99013 9.02811 6.21053 9.02811C4.57237 9.02811 3.25 10.3735 3.25 12.0402C3.25 13.7068 4.57237 15.0522 6.21053 15.0522C6.99013 15.0522 7.69079 14.741 8.22368 14.239L15.25 18.4157C15.2007 18.6265 15.1711 18.8474 15.1711 19.0683C15.1711 20.6847 16.4638 22 18.0526 22C19.6414 22 20.9342 20.6847 20.9342 19.0683C20.9342 17.4518 19.6414 16.1365 18.0526 16.1365Z" fill="#654E47"/>
</svg>
