<svg width="188" height="157" viewBox="0 0 188 157" fill="none" xmlns="http://www.w3.org/2000/svg">
<g clip-path="url(#clip0)">
<path d="M109.228 20.7655C97.1758 20.3461 85.697 16.452 74.7359 12.1907C63.7748 7.92937 52.9179 3.20762 41.1542 0.9502C33.5879 -0.501929 24.9341 -0.70698 18.839 3.35302C12.9711 7.26761 11.0754 14.0063 10.0567 20.2659C9.2895 24.9746 8.83884 29.9313 10.9394 34.338C12.3994 37.3988 14.9879 39.9713 16.7794 42.9035C23.0123 53.1038 18.6063 65.6827 11.8538 75.6426C8.688 80.3158 5.01009 84.7766 2.56497 89.7463C0.119857 94.716 -1.01052 100.418 1.12919 105.492C3.24841 110.525 8.30065 114.298 13.7738 116.955C24.8894 122.351 37.9828 123.895 50.7596 124.769C79.0339 126.706 107.457 125.867 135.806 125.028C146.298 124.717 156.834 124.402 167.155 122.778C172.887 121.876 178.803 120.446 182.965 116.99C188.247 112.604 189.556 105.177 186.016 99.6763C180.079 90.4509 163.669 88.16 159.514 78.2598C157.231 72.8091 159.576 66.7397 162.896 61.6842C170.017 50.8427 181.952 41.3302 182.58 28.9377C183.012 20.4262 177.274 11.9017 168.403 7.87344C159.104 3.65314 146.208 4.18254 139.352 11.171C132.285 18.3664 119.871 21.1346 109.228 20.7655Z" fill="#FBF7F3"/>
<path d="M90.037 153.249C121.3 153.249 146.643 149.817 146.643 145.584C146.643 141.35 121.3 137.919 90.037 137.919C58.7742 137.919 33.4307 141.35 33.4307 145.584C33.4307 149.817 58.7742 153.249 90.037 153.249Z" fill="#FDFBF8"/>
<path d="M120.928 54.0251H120.131C119.895 54.0251 119.704 54.2163 119.704 54.452V67.2099C119.704 67.4456 119.895 67.6368 120.131 67.6368H120.928C121.163 67.6368 121.354 67.4456 121.354 67.2099V54.452C121.354 54.2163 121.163 54.0251 120.928 54.0251Z" fill="#3A3768"/>
<path d="M65.3741 43.3607H65.3015C65.0659 43.3607 64.875 43.5518 64.875 43.7876V47.4151C64.875 47.6509 65.0659 47.842 65.3015 47.842H65.3741C65.6096 47.842 65.8005 47.6509 65.8005 47.4151V43.7876C65.8005 43.5518 65.6096 43.3607 65.3741 43.3607Z" fill="#3A3768"/>
<path d="M65.4572 51.5664H65.2673C65.0318 51.5664 64.8408 51.7575 64.8408 51.9933V58.9389C64.8408 59.1746 65.0318 59.3658 65.2673 59.3658H65.4572C65.6927 59.3658 65.8837 59.1746 65.8837 58.9389V51.9933C65.8837 51.7575 65.6927 51.5664 65.4572 51.5664Z" fill="#3A3768"/>
<path d="M65.4235 62.0948H65.2839C65.0484 62.0948 64.8574 62.286 64.8574 62.5217V69.5345C64.8574 69.7702 65.0484 69.9613 65.2839 69.9613H65.4235C65.6591 69.9613 65.85 69.7702 65.85 69.5345V62.5217C65.85 62.286 65.6591 62.0948 65.4235 62.0948Z" fill="#3A3768"/>
<path d="M113.334 28.5524H72.6593C68.6492 28.5524 65.3984 31.8064 65.3984 35.8205V133.575C65.3984 137.589 68.6492 140.843 72.6593 140.843H113.334C117.344 140.843 120.595 137.589 120.595 133.575V35.8205C120.595 31.8064 117.344 28.5524 113.334 28.5524Z" fill="#3A3768"/>
<path d="M112.808 31.4696H106.477V32.232C106.477 32.7066 106.383 33.1765 106.202 33.6149C106.021 34.0534 105.754 34.4517 105.419 34.7872C105.084 35.1227 104.686 35.3887 104.248 35.5702C103.81 35.7516 103.34 35.8449 102.866 35.8446H82.7297C82.2556 35.8449 81.7861 35.7516 81.348 35.5702C80.9099 35.3887 80.5118 35.1227 80.1765 34.7872C79.8412 34.4517 79.5752 34.0534 79.3937 33.6149C79.2122 33.1765 79.1188 32.7066 79.1188 32.232V31.4696H73.1913C72.0287 31.4696 70.9137 31.9319 70.0916 32.7548C69.2695 33.5778 68.8076 34.6939 68.8076 35.8577V133.531C68.8076 134.694 69.2695 135.81 70.0916 136.633C70.9137 137.456 72.0287 137.919 73.1913 137.919H112.808C113.971 137.919 115.086 137.456 115.908 136.633C116.73 135.81 117.192 134.694 117.192 133.531V35.8651C117.193 35.2883 117.081 34.7168 116.861 34.1836C116.641 33.6504 116.318 33.1657 115.911 32.7575C115.504 32.3492 115.02 32.0253 114.488 31.8043C113.955 31.5834 113.385 31.4696 112.808 31.4696Z" fill="#388A6B"/>
<path d="M94.659 31.9058H88.3926C87.9945 31.9058 87.6719 32.2287 87.6719 32.6272V32.7502C87.6719 33.1486 87.9945 33.4716 88.3926 33.4716H94.659C95.057 33.4716 95.3796 33.1486 95.3796 32.7502V32.6272C95.3796 32.2287 95.057 31.9058 94.659 31.9058Z" fill="#E6E8EC"/>
<path d="M97.4342 33.5779C97.9248 33.5779 98.3224 33.1798 98.3224 32.6887C98.3224 32.1977 97.9248 31.7996 97.4342 31.7996C96.9436 31.7996 96.5459 32.1977 96.5459 32.6887C96.5459 33.1798 96.9436 33.5779 97.4342 33.5779Z" fill="#E6E8EC"/>
<path d="M139.705 23.6274C139.705 23.6274 124.025 22.6804 125.872 33.6786C125.872 33.6786 125.5 35.6228 127.265 36.5045C127.265 36.5045 127.293 35.6899 128.874 35.9677C129.437 36.0611 130.009 36.0886 130.578 36.0497C131.346 35.9992 132.076 35.7002 132.66 35.1978C132.66 35.1978 137.068 33.3747 138.781 26.1644C138.781 26.1644 140.049 24.5911 139.999 24.1866L137.353 25.3181C137.353 25.3181 138.258 27.2288 137.539 28.817C137.539 28.817 137.453 25.3871 136.945 25.4616C136.842 25.4766 135.571 26.1234 135.571 26.1234C135.571 26.1234 137.125 29.4508 135.952 31.8704C135.952 31.8704 136.397 27.7694 135.084 26.3639L133.222 27.4525C133.222 27.4525 135.04 30.8899 133.807 33.6953C133.807 33.6953 134.124 29.393 132.829 27.7172L131.142 29.0351C131.142 29.0351 132.85 32.4222 131.809 34.7485C131.809 34.7485 131.673 29.7416 130.777 29.3632C130.777 29.3632 129.3 30.668 129.075 31.2012C129.075 31.2012 130.245 33.6618 129.518 34.9592C129.518 34.9592 129.073 31.6225 128.708 31.6038C128.708 31.6038 127.237 33.8146 127.084 35.332C127.084 35.332 127.148 33.0783 128.352 31.395C128.352 31.395 126.93 31.6392 126.099 32.562C126.099 32.562 126.328 30.9999 128.716 30.8619C128.716 30.8619 129.932 29.1842 130.256 29.0836C130.256 29.0836 127.883 28.8841 126.444 29.5235C126.444 29.5235 127.71 28.049 130.691 28.7201L132.358 27.3574C132.358 27.3574 129.233 26.9305 127.907 27.4022C127.907 27.4022 129.433 26.0973 132.807 27.048L134.621 25.9631C134.621 25.9631 131.956 25.3889 130.369 25.5903C130.369 25.5903 132.045 24.6862 135.153 25.6667L136.457 25.0832C136.457 25.0832 134.505 24.6992 133.934 24.6377C133.362 24.5762 133.332 24.4196 133.332 24.4196C134.569 24.2132 135.838 24.3546 136.999 24.8278C136.999 24.8278 139.751 23.8007 139.705 23.6274Z" fill="#388A6B"/>
<path d="M123.621 18.736C123.621 18.736 116.544 18.3091 117.371 23.2788C117.371 23.2788 117.205 24.1568 118 24.5557C118 24.5557 118.013 24.1829 118.728 24.3115C118.982 24.3543 119.241 24.3668 119.498 24.3488C119.845 24.3258 120.175 24.1896 120.438 23.961C120.438 23.961 122.431 23.1371 123.205 19.8787C123.205 19.8787 123.777 19.1685 123.755 18.9858L122.559 19.4965C122.559 19.4965 122.967 20.3596 122.647 21.0773C122.647 21.0773 122.608 19.5282 122.378 19.5636C122.332 19.5636 121.756 19.8638 121.756 19.8638C121.756 19.8638 122.46 21.3681 121.93 22.4604C121.93 22.4604 122.131 20.6075 121.537 19.9719L120.695 20.4715C120.695 20.4715 121.516 22.0242 120.959 23.2918C120.959 23.2918 121.103 21.3476 120.518 20.5908L119.756 21.1873C119.756 21.1873 120.527 22.7177 120.058 23.769C120.058 23.769 119.995 21.506 119.591 21.3345C119.591 21.3345 118.924 21.9236 118.822 22.1659C118.822 22.1659 119.35 23.2844 119.023 23.8641C119.023 23.8641 118.822 22.356 118.65 22.3486C118.65 22.3486 117.985 23.3477 117.917 24.0263C117.95 23.3936 118.148 22.7806 118.49 22.2479C118.106 22.3207 117.752 22.504 117.471 22.7755C117.471 22.7755 117.576 22.069 118.654 22.0075C118.654 22.0075 119.213 21.2488 119.35 21.2022C119.35 21.2022 118.278 21.1127 117.628 21.4016C117.628 21.4016 118.2 20.7362 119.546 21.0381L120.291 20.423C120.291 20.423 118.877 20.2366 118.28 20.4435C118.28 20.4435 118.969 19.8544 120.494 20.2832L121.313 19.7929C121.313 19.7929 120.108 19.5338 119.391 19.627C119.391 19.627 120.149 19.2188 121.553 19.6606L122.14 19.3977C122.14 19.3977 121.257 19.2244 120.999 19.1964C120.74 19.1685 120.727 19.0976 120.727 19.0976C121.286 19.0045 121.86 19.0691 122.384 19.284C122.384 19.284 123.643 18.8143 123.621 18.736Z" fill="#388A6B"/>
<path opacity="0.1" d="M160.929 145.006C163.699 145.006 165.944 144.626 165.944 144.158C165.944 143.689 163.699 143.31 160.929 143.31C158.159 143.31 155.914 143.689 155.914 144.158C155.914 144.626 158.159 145.006 160.929 145.006Z" fill="#6C63FF"/>
<path opacity="0.1" d="M16.9632 151.967C19.7329 151.967 21.9782 151.587 21.9782 151.118C21.9782 150.65 19.7329 150.27 16.9632 150.27C14.1935 150.27 11.9482 150.65 11.9482 151.118C11.9482 151.587 14.1935 151.967 16.9632 151.967Z" fill="#6C63FF"/>
<path opacity="0.1" d="M36.3617 156.517C39.1314 156.517 41.3767 156.137 41.3767 155.668C41.3767 155.2 39.1314 154.82 36.3617 154.82C33.592 154.82 31.3467 155.2 31.3467 155.668C31.3467 156.137 33.592 156.517 36.3617 156.517Z" fill="#6C63FF"/>
<path d="M149.951 154.515C154.086 154.515 157.439 153.947 157.439 153.247C157.439 152.547 154.086 151.979 149.951 151.979C145.815 151.979 142.463 152.547 142.463 153.247C142.463 153.947 145.815 154.515 149.951 154.515Z" fill="#388A6B"/>
<path d="M153.048 151.174C153.389 150.895 153.638 150.519 153.761 150.095C153.854 149.668 153.672 149.163 153.262 148.997C152.804 148.822 152.314 149.141 151.944 149.461C151.573 149.782 151.147 150.149 150.661 150.08C150.911 149.854 151.098 149.566 151.204 149.246C151.31 148.925 151.331 148.583 151.266 148.251C151.244 148.114 151.185 147.985 151.096 147.879C150.843 147.606 150.381 147.722 150.078 147.938C149.109 148.619 148.839 149.937 148.834 151.12C148.735 150.693 148.819 150.248 148.815 149.815C148.811 149.383 148.694 148.883 148.323 148.654C148.095 148.531 147.838 148.471 147.579 148.479C147.143 148.462 146.659 148.507 146.361 148.826C145.988 149.221 146.089 149.884 146.409 150.317C146.729 150.749 147.219 151.027 147.67 151.327C148.03 151.542 148.338 151.836 148.569 152.187C148.597 152.236 148.62 152.287 148.636 152.341H151.357C151.97 152.03 152.539 151.638 153.048 151.174Z" fill="#388A6B"/>
<path d="M36.621 134.824C36.621 134.824 37.6453 136.165 36.1499 138.18C34.6545 140.195 33.4217 141.908 33.9152 143.17C33.9152 143.17 36.1722 139.414 38.0121 139.361C39.852 139.309 38.6416 137.083 36.621 134.824Z" fill="#388A6B"/>
<path opacity="0.1" d="M36.6213 134.824C36.7106 134.954 36.7809 135.096 36.8299 135.246C38.6214 137.352 39.5767 139.319 37.8541 139.367C36.2508 139.414 34.3271 142.284 33.8652 143.009C33.8801 143.065 33.8988 143.119 33.9192 143.175C33.9192 143.175 36.1763 139.419 38.0162 139.367C39.856 139.315 38.6419 137.084 36.6213 134.824Z" fill="black"/>
<path d="M38.5227 136.532C38.5227 137.003 38.4706 137.385 38.4054 137.385C38.3402 137.385 38.2881 137.003 38.2881 136.532C38.2881 136.06 38.3533 136.282 38.4184 136.282C38.4836 136.282 38.5227 136.06 38.5227 136.532Z" fill="#FFD037"/>
<path d="M39.1756 137.095C38.7622 137.32 38.4009 137.456 38.3711 137.398C38.3413 137.341 38.6486 137.111 39.062 136.886C39.4754 136.66 39.3134 136.824 39.3432 136.886C39.373 136.947 39.589 136.869 39.1756 137.095Z" fill="#FFD037"/>
<path d="M31.2188 134.824C31.2188 134.824 30.1946 136.165 31.69 138.18C33.1853 140.195 34.4181 141.908 33.9246 143.17C33.9246 143.17 31.6695 139.414 29.8277 139.361C27.986 139.309 29.1946 137.083 31.2188 134.824Z" fill="#474463"/>
<path opacity="0.1" d="M31.218 134.824C31.1284 134.954 31.0575 135.096 31.0075 135.246C29.2161 137.352 28.2626 139.319 29.9833 139.367C31.5886 139.414 33.5122 142.284 33.9741 143.009C33.9588 143.066 33.9402 143.121 33.9182 143.175C33.9182 143.175 31.663 139.419 29.8213 139.367C27.9796 139.315 29.1937 137.084 31.218 134.824Z" fill="black"/>
<path d="M29.3154 136.532C29.3154 137.003 29.3694 137.385 29.4346 137.385C29.4998 137.385 29.5519 137.003 29.5519 136.532C29.5519 136.06 29.4868 136.282 29.4216 136.282C29.3564 136.282 29.3154 136.06 29.3154 136.532Z" fill="#FFD037"/>
<path d="M28.6631 137.095C29.0766 137.32 29.436 137.456 29.4676 137.398C29.4993 137.341 29.1883 137.111 28.7749 136.886C28.3615 136.66 28.5253 136.824 28.4937 136.886C28.462 136.947 28.2497 136.869 28.6631 137.095Z" fill="#FFD037"/>
<path d="M29.6416 143C29.6416 143 32.502 142.911 33.3661 142.297C34.2301 141.684 37.7665 140.948 37.9788 141.934C38.1911 142.92 42.2787 146.835 39.0496 146.861C35.8205 146.887 31.5448 146.357 30.6845 145.834C29.8241 145.31 29.6416 143 29.6416 143Z" fill="#A8A8A8"/>
<path opacity="0.2" d="M39.1055 146.518C35.8764 146.544 31.6007 146.015 30.7403 145.491C30.0867 145.09 29.8241 143.656 29.7366 142.997H29.6416C29.6416 142.997 29.8278 145.304 30.6826 145.83C31.5374 146.356 35.8186 146.883 39.0477 146.857C39.9789 146.857 40.301 146.518 40.2843 146.026C40.1539 146.328 39.7982 146.512 39.1055 146.518Z" fill="black"/>
<path d="M52.5576 82.8962C52.5841 82.9219 52.6182 82.9383 52.6548 82.943C52.6914 82.9477 52.7285 82.9404 52.7606 82.9223C52.692 82.9234 52.6237 82.9146 52.5576 82.8962Z" fill="url(#paint0_linear)"/>
<path d="M74.8729 45.8008C74.48 45.6853 73.9213 45.497 73.2453 45.2602C73.9468 44.3431 74.4596 43.2958 74.7538 42.1789L74.696 42.2013C74.7146 42.1323 74.7351 42.0652 74.7538 41.9962C73.4614 42.5293 72.0293 41.6234 71.1187 40.4658C70.208 39.3082 69.5879 37.8672 68.5916 36.7991C68.1756 36.3761 67.728 35.9853 67.2527 35.6303C66.9584 35.3992 66.64 35.1587 66.2806 35.1475C65.6996 35.1308 65.2433 35.7068 64.6828 35.8801C64.3132 35.9647 63.9279 35.9505 63.5655 35.8391C62.1185 35.5017 60.7237 34.881 59.2544 34.7207C58.4647 34.6212 57.6626 34.7126 56.9154 34.9872C56.1705 35.2743 55.8353 35.8428 55.2394 36.2921C54.5932 36.7805 53.3064 36.7693 52.5448 36.8513C51.6214 36.9575 50.6916 36.9967 49.7626 36.9688C49.2284 36.9204 48.6902 36.9405 48.1611 37.0284C47.0549 37.2745 46.1666 38.1655 45.3379 39.023C45.1107 39.2188 44.9478 39.4787 44.8705 39.7686C44.8603 39.8503 44.8603 39.933 44.8705 40.0147C44.8619 40.2376 44.9 40.4598 44.9822 40.6671C45.2326 41.4378 45.5899 42.1695 46.0437 42.8406C46.3826 43.3328 46.7756 43.7951 46.9748 44.3767C47.0663 44.663 47.1146 44.9615 47.1182 45.2621C47.1077 45.5815 47.0748 45.8999 47.0195 46.2147C46.8732 47.0826 46.6327 47.9321 46.3025 48.748C46.1275 49.1804 45.9301 49.611 45.8835 50.0845C45.878 50.1789 45.878 50.2735 45.8835 50.3679C45.8277 51.8274 47.2821 52.8806 47.5596 54.3328C47.5816 54.4528 47.5953 54.5743 47.6005 54.6963C47.5689 55.6022 47.0605 56.4877 46.3119 56.8381C46.377 56.8642 46.4441 56.8866 46.5111 56.9108C46.4468 56.9517 46.3803 56.989 46.3119 57.0227C46.4478 57.0749 46.5875 57.1196 46.729 57.1606C45.8727 57.9115 45.1537 58.8059 44.6042 59.8039C42.0976 64.5629 25.0135 73.8983 25.0135 73.8983C25.0135 73.8983 25.1103 73.9524 25.2667 74.0456C25.2034 74.0847 25.1364 74.1294 25.0619 74.1798C23.5833 75.1789 20.1121 78.0944 23.2499 81.7704C23.2499 81.7704 25.6988 77.8464 27.4139 76.1781C27.4921 76.1035 27.5666 76.0345 27.6392 75.9693C27.6776 76.0281 27.7033 76.0943 27.7148 76.1636C27.7264 76.2329 27.7235 76.3038 27.7063 76.3719L38.9411 69.9651C38.9411 69.9651 42.9338 67.1279 44.0474 66.4867C44.431 66.2667 45.4087 65.6553 46.5782 65.385L46.4478 65.4428C46.8675 65.3253 47.3007 65.2626 47.7365 65.2564C49.7253 65.288 51.8781 66.7663 52.5894 72.6214C53.541 80.4618 53.0997 81.8747 52.7943 82.0686C52.7564 82.0658 52.719 82.0589 52.6826 82.0481C52.6916 82.0566 52.7016 82.0642 52.7124 82.0705C52.6707 82.0678 52.6294 82.0603 52.5894 82.0481C52.6109 82.0685 52.6373 82.083 52.666 82.0902C52.6947 82.0974 52.7248 82.097 52.7533 82.0891C52.7741 82.0952 52.7958 82.097 52.8172 82.0944C52.8387 82.0919 52.8594 82.085 52.8781 82.0742C52.9209 82.0742 52.9712 82.0742 53.0289 82.0742C53.0289 82.145 53.0178 82.2196 53.0122 82.2923C52.9973 82.2923 52.9228 82.3352 53.0122 82.3408C52.9898 82.7826 52.9917 83.2728 53.0122 83.7668C52.0233 83.8227 51.0363 83.8824 50.1704 83.9364L50.2486 83.5207L50.284 83.3343C51.0419 83.2728 51.7626 83.0473 51.8464 82.4209C52.0326 81.049 50.1704 80.3164 48.5968 80.225C47.0232 80.1337 37.5482 80.7749 37.5482 80.7749C37.5482 80.7749 36.1273 82.639 40.632 83.2188C40.7661 83.2896 40.9058 83.3679 41.0473 83.4499C42.8109 84.4714 45.2057 86.3504 46.351 87.2769L46.5111 87.4055L45.9971 87.8212C48.7905 88.4624 51.4758 99.263 52.96 104.205C54.4442 109.146 57.6957 108.964 60.3885 108.233C62.9118 107.545 63.234 100.109 63.2638 99.1754C63.2638 99.112 63.2638 99.0803 63.2638 99.0803L67.7499 104.693L68.0907 105.12C68.2229 105.189 68.3514 105.254 68.478 105.316C71.8766 106.958 75.6309 103.811 74.5619 100.232C73.4837 96.616 71.8077 91.2716 70.6904 89.0124C69.7592 87.1203 68.5469 83.9793 67.8132 82.0071C67.9083 81.9679 68.0009 81.9231 68.0907 81.8729C68.0907 81.8729 68.0739 81.7853 68.0441 81.6231L68.0907 81.5989C68.0907 81.5989 67.0106 75.9041 66.951 71.8608C66.951 71.79 66.951 71.7192 66.951 71.6483C66.951 71.5775 66.951 71.5607 66.951 71.516C67.7629 71.3296 68.2769 71.255 68.2769 71.255L68.2918 71.0798L68.1968 71.1003L68.6475 65.8547C68.6475 65.8547 70.3049 62.2775 69.0367 60.7863C68.6506 60.3485 68.3928 59.8124 68.2918 59.2372C68.0795 57.8652 68.2918 55.5817 71.2472 53.6822C75.7966 50.7537 77.562 48.3733 77.562 48.3733C77.562 48.3733 77.6588 46.6248 74.8729 45.8008ZM65.8374 49.4395V47.0162C66.681 46.9752 67.5432 47.074 68.3905 47.0162C68.8072 46.9868 69.2201 46.9169 69.6233 46.8074L69.8282 46.951C68.5884 47.9178 67.2509 48.7519 65.8374 49.4395ZM52.9395 87.4316C53.2729 87.6665 53.6081 87.9107 53.9377 88.1549C54.1425 89.3498 54.3232 90.1942 54.3362 90.252C53.9598 89.2702 53.4922 88.326 52.9395 87.4316Z" fill="url(#paint1_linear)"/>
<path d="M60.2321 85.9011L60.031 86.9935L59.8764 87.8286L59.5952 89.3572L56.8689 91.2679C56.8689 91.2679 56.6231 91.0572 56.2171 90.7254C55.0998 89.8045 52.7515 87.9293 51.0271 86.9227C50.5835 86.6397 50.1036 86.4183 49.6006 86.2646L60.2321 85.9011Z" fill="#FFBDC6"/>
<path opacity="0.1" d="M60.2321 85.9011L60.031 86.9935C59.4297 87.0262 58.8267 86.9949 58.232 86.9003L51.8706 86.9916C51.5708 86.973 51.2896 86.9506 51.0271 86.9226C50.5835 86.6397 50.1036 86.4183 49.6006 86.2646L60.2321 85.9011Z" fill="black"/>
<path d="M58.2319 86.7139C58.2319 86.7139 61.4107 87.2601 61.5969 85.9012C61.7831 84.5423 59.96 83.8078 58.4162 83.7165C56.8724 83.6251 47.6022 84.2626 47.6022 84.2626C47.6022 84.2626 45.9672 86.4455 51.8723 86.8108L58.2319 86.7139Z" fill="#474463"/>
<path opacity="0.1" d="M60.2321 85.9011L60.031 86.9935L59.8764 87.8286L59.5952 89.3572L56.8689 91.2679C56.8689 91.2679 56.6231 91.0572 56.2171 90.7254C55.0998 89.8045 52.7515 87.9293 51.0271 86.9227C50.5835 86.6397 50.1036 86.4183 49.6006 86.2646L60.2321 85.9011Z" fill="black"/>
<path opacity="0.1" d="M60.2321 85.9011L60.031 86.9935C59.4297 87.0262 58.8267 86.9949 58.232 86.9003L51.8706 86.9916C51.5708 86.973 51.2896 86.9506 51.0271 86.9226C50.5835 86.6397 50.1036 86.4183 49.6006 86.2646L60.2321 85.9011Z" fill="black"/>
<path opacity="0.1" d="M58.2318 86.7101C58.2318 86.7101 61.4125 87.2544 61.595 85.8899C61.7775 84.5254 59.9581 83.7984 58.4143 83.7071C56.8705 83.6157 47.6003 84.2533 47.6003 84.2533C47.6003 84.2533 45.9652 86.4361 51.8704 86.7996L58.2318 86.7101Z" fill="black"/>
<path d="M65.1835 41.8712H48.5537V61.6101H65.1835V41.8712Z" fill="#474463"/>
<path opacity="0.1" d="M65.1835 41.9608H48.5537V61.6997H65.1835V41.9608Z" fill="black"/>
<path d="M29.064 75.6616C28.7903 75.7306 28.4402 75.9953 28.051 76.3793C26.375 78.0402 23.9746 81.938 23.9746 81.938C20.9056 78.2788 24.3023 75.3876 25.7493 74.3941C26.1012 74.1536 26.3377 74.0212 26.3377 74.0212L29.064 75.6616Z" fill="#FFBDC6"/>
<path d="M60.0493 48.1011C60.0493 48.1011 60.8668 53.8313 63.6844 55.1958C66.5019 56.5603 60.0493 59.1104 60.0493 59.1104L51.2354 55.8333C51.2354 55.8333 56.2336 54.1948 55.2336 49.3742L60.0493 48.1011Z" fill="#FFBDC6"/>
<path d="M50.5989 82.5757L50.3996 83.6643L50.2376 84.5032L49.9564 86.0317L47.2301 87.9406C47.2301 87.9406 46.9843 87.7318 46.5783 87.4C45.461 86.4791 43.1127 84.6038 41.3864 83.5972C40.9431 83.3138 40.4632 83.0924 39.96 82.9392L50.5989 82.5757Z" fill="#FFBDC6"/>
<path opacity="0.1" d="M50.5993 82.5757L50.4 83.6643C49.7988 83.697 49.1957 83.6657 48.6011 83.5711L42.2397 83.6624C41.9399 83.6438 41.6568 83.6214 41.3942 83.5935C40.9509 83.3101 40.471 83.0887 39.9678 82.9355L50.5993 82.5757Z" fill="black"/>
<path d="M48.6004 83.394C48.6004 83.394 51.7811 83.9383 51.9617 82.5756C52.1424 81.213 50.3267 80.4823 48.781 80.3909C47.2354 80.2996 37.9689 80.9371 37.9689 80.9371C37.9689 80.9371 36.332 83.12 42.239 83.4853L48.6004 83.394Z" fill="#474463"/>
<path opacity="0.1" d="M50.2374 84.5031L49.9562 86.0316L47.2299 87.9405C47.2299 87.9405 46.9841 87.7317 46.5781 87.3999L50.1834 84.4397L50.2374 84.5031Z" fill="black"/>
<path d="M68.2437 105.327C68.1189 105.265 67.9941 105.202 67.8712 105.14L67.536 104.717L63.1393 99.1362C63.1393 99.1362 63.1393 99.1697 63.1393 99.2331C63.1095 100.165 62.7929 107.551 60.3236 108.233C57.6885 108.96 54.5097 109.143 53.0609 104.231C51.6121 99.3189 48.964 88.5854 46.2451 87.9479L50.2899 84.6279C50.2899 84.6279 52.9678 87.7634 54.059 90.7645C54.0181 90.5781 52.1689 81.9287 53.6866 80.3983H66.955C66.955 80.3983 69.0035 86.2385 70.4076 89.1316C71.5007 91.3778 73.1414 96.6886 74.1972 100.283C75.2438 103.832 71.5696 106.965 68.2437 105.327Z" fill="#474463"/>
<path opacity="0.1" d="M67.8652 82.0294C65.8167 83.243 56.824 82.749 53.8984 82.5514L53.1014 82.4936C53.0157 82.4936 53.1144 82.4451 53.1144 82.4451L53.1963 81.6193L55.377 76.0718L67.0532 69.2939C66.8167 70.0079 66.7385 71.1003 66.7571 72.3511C66.8111 76.37 67.8652 82.0294 67.8652 82.0294Z" fill="black"/>
<path d="M67.8657 81.7554C65.8173 82.9689 56.8245 82.4749 53.899 82.2773L53.1019 82.2214L52.9697 82.2102L53.115 82.173L53.8338 81.9865L55.3776 75.8015L67.0538 69.0255C66.8173 69.7395 66.7391 70.8318 66.7577 72.0826C66.8117 76.0979 67.8657 81.7554 67.8657 81.7554Z" fill="#F2F1F2"/>
<path opacity="0.1" d="M66.7495 72.0789C64.3752 72.6269 59.1497 74.2357 57.1422 78.1186C55.8033 80.7041 54.6766 81.8132 53.8908 82.2774L53.0938 82.2214C53.099 82.2055 53.1033 82.1893 53.1068 82.173L53.8256 81.9866L55.3694 75.8015L67.0456 69.0255C66.811 69.7357 66.7309 70.8281 66.7495 72.0789Z" fill="black"/>
<path opacity="0.1" d="M26.3375 74.025L29.0638 75.6617C28.7901 75.7307 28.44 75.9954 28.0507 76.3794C27.8236 75.7158 26.3971 74.7893 25.749 74.3941C26.101 74.1574 26.3375 74.025 26.3375 74.025Z" fill="black"/>
<path opacity="0.1" d="M52.6081 82.3277C52.5782 82.3433 52.5442 82.3492 52.5108 82.3445C52.4774 82.3398 52.4463 82.3248 52.4219 82.3016C52.4823 82.3194 52.5451 82.3282 52.6081 82.3277Z" fill="black"/>
<path d="M58.7778 54.8323C58.7778 54.8323 56.3234 55.1044 54.5971 53.2851C54.5971 53.2851 47.3344 55.3784 44.8744 60.1077C42.4144 64.8369 25.6934 74.1163 25.6934 74.1163C25.6934 74.1163 28.6022 75.753 28.3284 76.5713L39.3249 70.2036C39.3249 70.2036 43.2356 67.3851 44.3213 66.7476C45.407 66.11 51.4108 62.1992 52.6827 72.8413C53.9546 83.4834 52.6827 82.2102 52.6827 82.2102C52.6827 82.2102 54.5003 82.8477 57.1353 77.7532C59.7704 72.6586 67.9475 71.4768 67.9475 71.4768L68.4019 66.1119C68.4019 66.1119 70.0239 62.5552 68.7743 61.0788C68.3957 60.6417 68.1439 60.1093 68.0462 59.5391C67.8395 58.1764 68.0462 55.906 70.9401 54.0195C75.3927 51.1078 77.119 48.7441 77.119 48.7441C77.119 48.7441 77.2102 47.0143 74.4839 46.1959C71.7576 45.3776 60.6717 40.9205 60.6717 40.9205L60.2993 42.4677L69.0462 48.6472C69.0462 48.6472 64.6848 52.189 61.2248 52.1032C61.2248 52.1032 61.8673 54.7409 58.7778 54.8323Z" fill="#D93E3E"/>
<path opacity="0.1" d="M60.4616 50.5952C60.2467 49.866 60.0787 49.1238 59.9588 48.3732L55.1431 49.6464C55.3554 50.5666 55.3174 51.527 55.0332 52.4276C56.0178 52.6906 57.058 52.6571 58.0236 52.3311C58.9892 52.0052 59.8372 51.4013 60.4616 50.5952Z" fill="black"/>
<path d="M56.4611 52.3307C59.3213 52.3307 61.64 50.0097 61.64 47.1467C61.64 44.2836 59.3213 41.9626 56.4611 41.9626C53.6009 41.9626 51.2822 44.2836 51.2822 47.1467C51.2822 50.0097 53.6009 52.3307 56.4611 52.3307Z" fill="#FFBDC6"/>
<path opacity="0.1" d="M59.2157 35.3562C60.6533 35.5184 62.0183 36.1373 63.4336 36.4747C63.7872 36.5854 64.1638 36.6002 64.5249 36.5176C65.0743 36.3461 65.5212 35.7719 66.0911 35.7887C66.4412 35.7887 66.7521 36.0385 67.0408 36.2678C67.5041 36.6219 67.9399 37.0107 68.3444 37.431C69.3202 38.4916 69.9254 39.9195 70.8155 41.0734C71.7057 42.2273 73.1098 43.1239 74.3743 42.5945C73.5139 45.9499 70.6964 48.5056 67.6479 48.7143C66.4318 48.7964 65.186 48.5428 64.0091 48.9007C63.7157 49.0202 63.4064 49.0955 63.091 49.1244C62.4131 49.1244 61.8675 48.5018 61.4448 47.896C60.4541 46.4718 59.6701 44.8538 58.5546 43.5545C58.1821 43.1258 57.752 42.7175 57.2305 42.6393C56.7091 42.561 56.2305 42.8089 55.7668 43.0494C55.0014 43.4464 54.2193 43.8584 53.6253 44.5406C53.0312 45.2229 52.6569 46.237 52.9027 47.1504C53.0349 47.6462 53.3366 48.0936 53.3422 48.6118C53.3534 49.4376 52.6234 50.0434 52.48 50.8487C52.4476 51.187 52.4358 51.5268 52.4446 51.8665C52.3813 52.9701 51.6606 53.8741 50.9083 54.5676C50.614 54.8379 50.29 55.1268 50.2043 55.5444C50.1466 55.8277 50.2043 56.1297 50.1671 56.4168C50.0572 57.1326 49.344 57.4961 48.7127 57.5911C47.9751 57.6986 47.2222 57.6093 46.5301 57.332C47.4128 56.9126 47.9566 55.7252 47.7518 54.6589C47.4706 53.1826 45.9882 52.1238 46.1149 50.6194C46.1848 50.1585 46.3229 49.7106 46.5246 49.2903C46.8478 48.4792 47.0825 47.6354 47.2248 46.7738C47.3365 46.1065 47.3905 45.4 47.1819 44.7662C46.9957 44.1864 46.6065 43.7279 46.2769 43.2395C45.8296 42.5745 45.4768 41.8505 45.2284 41.0883C45.1377 40.8633 45.1032 40.6195 45.1279 40.3781C45.2004 40.0888 45.3596 39.8286 45.5841 39.6325C46.3942 38.7806 47.2601 37.8933 48.3458 37.6509C48.8637 37.5633 49.3907 37.5426 49.9138 37.5894C50.8236 37.619 51.7343 37.5803 52.6383 37.4739C53.3832 37.3862 54.642 37.3993 55.2733 36.9146C55.8618 36.4616 56.1933 35.8968 56.9177 35.6098C57.6517 35.3394 58.4405 35.2524 59.2157 35.3562Z" fill="black"/>
<path opacity="0.1" d="M62.0938 88.8967C62.0938 88.8967 65.0919 94.8096 64.1832 96.6271L62.0938 88.8967Z" fill="black"/>
<path opacity="0.1" d="M67.5307 104.71L63.1396 99.1362C63.1396 99.1362 63.1396 99.1698 63.1396 99.2331C63.1396 99.2331 62.8863 97.4287 63.7224 98.0345C65.5549 99.3618 68.486 101.537 68.5493 101.912C68.6127 102.287 67.9553 103.783 67.5307 104.71Z" fill="black"/>
<g opacity="0.1">
<path opacity="0.1" d="M61.322 52.1032C61.322 52.1032 61.6944 53.6392 60.4951 54.4072C62.3387 54.0922 62.4207 52.655 62.3574 52.0305C62.0151 52.0854 61.6686 52.1097 61.322 52.1032Z" fill="black"/>
<path opacity="0.1" d="M26.792 73.751C26.792 73.751 43.5111 64.4734 45.973 59.7442C47.7328 56.3496 51.975 54.3141 54.2283 53.4342C52.5858 53.9934 47.0513 56.1017 44.973 60.1077C42.5204 64.8369 25.792 74.1163 25.792 74.1163L26.792 73.751Z" fill="black"/>
<path opacity="0.1" d="M64.577 51.38C67.4224 50.4945 70.1413 48.2837 70.1413 48.2837L61.4112 42.0949L61.6104 41.2486L60.7743 40.9131L60.4111 42.4603L69.1357 48.6453C67.7375 49.7457 66.2057 50.6646 64.577 51.38Z" fill="black"/>
<path opacity="0.1" d="M64.627 72.3417C65.7413 71.961 66.8848 71.6717 68.046 71.4767L68.0609 71.3015C66.8911 71.5589 65.743 71.9067 64.627 72.3417Z" fill="black"/>
<path opacity="0.1" d="M54.0535 81.871H53.9735C53.9435 81.8863 53.9095 81.892 53.8762 81.8874C53.8429 81.8827 53.8118 81.8679 53.7872 81.8449C53.8477 81.8626 53.9104 81.8713 53.9735 81.871C54.2714 81.6977 54.7183 80.3387 53.7872 72.476C52.7853 64.0876 48.843 64.7419 46.6865 65.7075C48.8914 65.0998 51.925 65.6254 52.7872 72.8395C53.7276 80.7022 53.2788 82.0612 52.9734 82.2345C53.3609 82.22 53.736 82.0938 54.0535 81.871Z" fill="black"/>
<path opacity="0.1" d="M52.9733 82.2363C52.9103 82.2366 52.8476 82.2278 52.7871 82.2102C52.8117 82.2332 52.8428 82.248 52.8761 82.2526C52.9094 82.2573 52.9434 82.2516 52.9733 82.2363Z" fill="black"/>
</g>
<path d="M59.2154 35.1736C60.6531 35.3376 62.0181 35.9546 63.4334 36.292C63.7871 36.4021 64.1637 36.4163 64.5247 36.333C65.074 36.1634 65.521 35.5874 66.0908 35.6042C66.4409 35.6154 66.7519 35.854 67.0405 36.0832C67.5034 36.4379 67.9392 36.8267 68.3441 37.2464C69.3199 38.3071 69.9251 39.735 70.8153 40.8889C71.7054 42.0427 73.1096 42.9394 74.374 42.41C73.5137 45.7653 70.6961 48.321 67.6476 48.5298C66.4316 48.6137 65.1858 48.3602 64.0088 48.7162C63.7158 48.8365 63.4063 48.9119 63.0907 48.9399C62.4129 48.9399 61.8672 48.3173 61.4445 47.7115C60.4538 46.2873 59.6698 44.6711 58.5543 43.3718C58.1819 42.9412 57.7517 42.533 57.2303 42.4547C56.7089 42.3764 56.2303 42.6262 55.7666 42.8667C55.0012 43.2637 54.2191 43.6738 53.625 44.358C53.0309 45.0421 52.6566 46.0524 52.9025 46.9677C53.0347 47.4635 53.3364 47.9109 53.3419 48.4291C53.3531 49.2568 52.6231 49.8608 52.4797 50.666C52.4474 51.0043 52.4355 51.3442 52.4443 51.6838C52.381 52.7874 51.6603 53.6896 50.908 54.3849C50.6138 54.6533 50.2897 54.9441 50.2041 55.3598C50.1463 55.645 50.2041 55.9452 50.1668 56.2341C50.057 56.9499 49.3437 57.3134 48.7124 57.4066C47.9748 57.5159 47.2215 57.4265 46.5299 57.1475C47.4126 56.7299 47.9564 55.5406 47.7515 54.4762C47.4703 52.9999 45.988 51.9392 46.1146 50.4368C46.1843 49.9758 46.3224 49.5278 46.5243 49.1077C46.8473 48.2958 47.0821 47.4514 47.2245 46.5893C47.3362 45.9238 47.3902 45.2173 47.1817 44.5816C46.9954 44.0038 46.6062 43.5433 46.2766 43.0549C45.8297 42.3904 45.4769 41.6671 45.2282 40.9057C45.1379 40.6798 45.1034 40.4356 45.1276 40.1936C45.2023 39.9078 45.3613 39.6512 45.5839 39.4573C46.3939 38.6054 47.2599 37.7199 48.3456 37.4757C48.8636 37.3896 49.3905 37.3696 49.9136 37.4161C50.8233 37.4447 51.7339 37.406 52.638 37.3005C53.3829 37.2129 54.6418 37.2241 55.2731 36.7413C55.8615 36.2902 56.193 35.7235 56.9174 35.4364C57.651 35.1642 58.4395 35.0741 59.2154 35.1736Z" fill="#474463"/>
<path d="M93.3331 96.5283C99.0999 96.5283 103.775 91.8488 103.775 86.0764C103.775 80.3039 99.0999 75.6244 93.3331 75.6244C87.5664 75.6244 82.8916 80.3039 82.8916 86.0764C82.8916 91.8488 87.5664 96.5283 93.3331 96.5283Z" fill="white"/>
<path d="M107.053 84.6989C107.053 87.4618 106.234 90.1626 104.701 92.4599C103.167 94.7572 100.988 96.5477 98.4378 97.605C95.8877 98.6623 93.0817 98.939 90.3746 98.4C87.6675 97.8609 85.1808 96.5305 83.2291 94.5768C81.2774 92.6231 79.9482 90.134 79.4098 87.4242C78.8713 84.7144 79.1476 81.9056 80.2039 79.353C81.2602 76.8004 83.0489 74.6186 85.3439 73.0837C87.6389 71.5487 90.337 70.7294 93.0972 70.7294C96.7985 70.7294 100.348 72.2012 102.965 74.8209C105.582 77.4407 107.053 80.9939 107.053 84.6989ZM91.4845 92.0937L101.837 81.7312C101.92 81.6476 101.987 81.5482 102.032 81.4388C102.078 81.3294 102.101 81.2122 102.101 81.0937C102.101 80.9753 102.078 80.858 102.032 80.7486C101.987 80.6392 101.92 80.5398 101.837 80.4562L100.563 79.1905C100.48 79.1067 100.38 79.0402 100.271 78.9948C100.162 78.9494 100.045 78.9261 99.927 78.9261C99.8088 78.9261 99.6918 78.9494 99.5826 78.9948C99.4735 79.0402 99.3744 79.1067 99.291 79.1905L90.8476 87.6423L86.9053 83.6867C86.736 83.5182 86.5071 83.4236 86.2684 83.4236C86.0297 83.4236 85.8007 83.5182 85.6315 83.6867L84.3577 84.9692C84.1894 85.1386 84.0949 85.3678 84.0949 85.6067C84.0949 85.8456 84.1894 86.0748 84.3577 86.2442L90.2107 92.1012C90.2943 92.1851 90.3936 92.2516 90.5028 92.297C90.6121 92.3424 90.7293 92.3658 90.8476 92.3658C90.9659 92.3658 91.0831 92.3424 91.1924 92.297C91.3017 92.2516 91.4009 92.1851 91.4845 92.1012V92.0937Z" fill="#3ACC6C"/>
</g>
<defs>
<linearGradient id="paint0_linear" x1="52.66" y1="82.9447" x2="52.66" y2="82.8962" gradientUnits="userSpaceOnUse">
<stop stop-color="#808080" stop-opacity="0.25"/>
<stop offset="0.54" stop-color="#808080" stop-opacity="0.12"/>
<stop offset="1" stop-color="#808080" stop-opacity="0.1"/>
</linearGradient>
<linearGradient id="paint1_linear" x1="20171.5" y1="45345.1" x2="20171.5" y2="16022.2" gradientUnits="userSpaceOnUse">
<stop stop-color="#808080" stop-opacity="0.25"/>
<stop offset="0.54" stop-color="#808080" stop-opacity="0.12"/>
<stop offset="1" stop-color="#808080" stop-opacity="0.1"/>
</linearGradient>
<clipPath id="clip0">
<rect width="188" height="156.517" fill="white"/>
</clipPath>
</defs>
</svg>
