<svg width="100" height="100" viewBox="0 0 100 100" fill="none" xmlns="http://www.w3.org/2000/svg">
<path d="M18.6252 87.4998H81.3752C87.7918 87.4998 91.7918 80.5415 88.5835 74.9998L57.2085 20.7915C54.0002 15.2498 46.0002 15.2498 42.7918 20.7915L11.4168 74.9998C8.20851 80.5415 12.2085 87.4998 18.6252 87.4998ZM50.0002 58.3332C47.7085 58.3332 45.8335 56.4582 45.8335 54.1665V45.8332C45.8335 43.5415 47.7085 41.6665 50.0002 41.6665C52.2918 41.6665 54.1668 43.5415 54.1668 45.8332V54.1665C54.1668 56.4582 52.2918 58.3332 50.0002 58.3332ZM54.1668 74.9998H45.8335V66.6665H54.1668V74.9998Z" fill="#D93E3E"/>
</svg>
